<svg xmlns="http://www.w3.org/2000/svg" width="32" height="32" viewBox="0 0 32 32"><g transform="translate(0 -1020.362)"><path style="line-height:normal;text-indent:0;text-align:start;text-decoration-line:none;text-decoration-style:solid;text-decoration-color:#000;text-transform:none;white-space:normal;isolation:auto;mix-blend-mode:normal;solid-color:#000;solid-opacity:1" fill-rule="evenodd" d="m 11,1024.1022 a 0.50004824,0.50004824 0 0 0 -0.5,0.5 l 0,2.5 a 0.50004824,0.50004824 0 0 0 0.5,0.5 l 10,0 a 0.50004824,0.50004824 0 0 0 0.5,-0.5 l 0,-2.5 a 0.50004824,0.50004824 0 0 0 -0.5,-0.5 z m 0.5,1 9,0 0,1.5 -9,0 z" color="#000" enable-background="accumulate" font-family="sans-serif" font-weight="400" overflow="visible"/><path style="line-height:normal;text-indent:0;text-align:start;text-decoration-line:none;text-decoration-style:solid;text-decoration-color:#000;text-transform:none;white-space:normal;isolation:auto;mix-blend-mode:normal;solid-color:#000;solid-opacity:1" fill-rule="evenodd" d="M15.998 1021.8619c-1.3731.001-2.498 1.1228-2.498 2.4941a.49940123.49940123 0 10.998 0c.0001-.8302.6646-1.4955 1.5-1.4961.8354-.0006 1.5026.664 1.5039 1.4941a.49940123.49940123 0 10.9981 0c0-1.3713-1.1288-2.4913-2.502-2.4902zM21.25 1025.3522a.50004824.50004824 0 100 1l4.75 0 0 6a.50004824.50004824 0 101 0l0-6.5a.50004824.50004824 0 00-.5-.5z" color="#000" enable-background="accumulate" font-family="sans-serif" font-weight="400" overflow="visible"/><path d="m 25.9998,1034.3526 c 0,0.2761 0.2239,0.5 0.5,0.5 0.2761,0 0.5,-0.2239 0.5,-0.5 0,-0.2761 -0.2239,-0.5 -0.5,-0.5 -0.2761,0 -0.5,0.2239 -0.5,0.5 z"/><path style="line-height:normal;text-indent:0;text-align:start;text-decoration-line:none;text-decoration-style:solid;text-decoration-color:#000;text-transform:none;white-space:normal;isolation:auto;mix-blend-mode:normal;solid-color:#000;solid-opacity:1" fill-rule="evenodd" d="m 10.748,1025.3522 -5.25,0.01 a 0.50004824,0.50004824 0 0 0 -0.498,0.5 l 0,25 a 0.50004824,0.50004824 0 0 0 0.5,0.5 l 21,-0.01 a 0.50004824,0.50004824 0 0 0 0.5,-0.5 l 0,-14.5 a 0.50004824,0.50004824 0 1 0 -1,0 l 0,14 -20,0.01 0,-24 4.75,-0.01 a 0.50004824,0.50004824 0 1 0 0,-1 z" color="#000" enable-background="accumulate" font-family="sans-serif" font-weight="400" overflow="visible"/><path style="line-height:normal;text-indent:0;text-align:start;text-decoration-line:none;text-decoration-style:solid;text-decoration-color:#000;text-transform:none;white-space:normal;isolation:auto;mix-blend-mode:normal;solid-color:#000;solid-opacity:1" fill-rule="evenodd" d="M17.0058 1041.86a.50004997.50004997 0 100 1l4.7442 0a.50004997.50004997 0 100-1zM10.25 1041.86a.50004994.50004994 0 100 1l3.2422 0a.50004994.50004994 0 100-1z" color="#000" enable-background="accumulate" font-family="sans-serif" font-weight="400" overflow="visible"/><path d="m 14.7499,1042.3592 a 0.5,0.5 0 0 0 0.5,0.5 0.5,0.5 0 0 0 0.5,-0.5 0.5,0.5 0 0 0 -0.5,-0.5 0.5,0.5 0 0 0 -0.5,0.5 z"/><path style="line-height:normal;text-indent:0;text-align:start;text-decoration-line:none;text-decoration-style:solid;text-decoration-color:#000;text-transform:none;white-space:normal;isolation:auto;mix-blend-mode:normal;solid-color:#000;solid-opacity:1" fill-rule="evenodd" d="M10.25 1034.86a.50004997.50004997 0 100 1l4.7441 0a.50004997.50004997 0 100-1zM18.5078 1034.86a.50004994.50004994 0 100 1l3.2422 0a.50004994.50004994 0 100-1z" color="#000" enable-background="accumulate" font-family="sans-serif" font-weight="400" overflow="visible"/><path d="m 17.2499,1035.3595 a 0.5,0.5 0 0 1 -0.5,0.5 0.5,0.5 0 0 1 -0.5,-0.5 0.5,0.5 0 0 1 0.5,-0.5 0.5,0.5 0 0 1 0.5,0.5 z"/><path style="line-height:normal;text-indent:0;text-align:start;text-decoration-line:none;text-decoration-style:solid;text-decoration-color:#000;text-transform:none;white-space:normal;isolation:auto;mix-blend-mode:normal;solid-color:#000;solid-opacity:1" fill-rule="evenodd" d="M12.0078 1038.36a.50004994.50004994 0 100 1l1.9746 0a.50004994.50004994 0 100-1zM15.75 1038.36a.50004988.50004988 0 100 1l4.25 0a.50004988.50004988 0 100-1z" color="#000" enable-background="accumulate" font-family="sans-serif" font-weight="400" overflow="visible"/><path d="m 22.2498,1038.8593 a 0.5,0.5 0 0 1 -0.5,0.5 0.5,0.5 0 0 1 -0.5,-0.5 0.5,0.5 0 0 1 0.5,-0.5 0.5,0.5 0 0 1 0.5,0.5 z"/><circle cx="10.25" cy="1038.859" r=".5"/><path style="line-height:normal;text-indent:0;text-align:start;text-decoration-line:none;text-decoration-style:solid;text-decoration-color:#000;text-transform:none;white-space:normal;isolation:auto;mix-blend-mode:normal;solid-color:#000;solid-opacity:1" fill-rule="evenodd" d="M17.7578 1031.36a.50005006.50005006 0 100 1l3.9922 0a.50005006.50005006 0 100-1zM10.25 1031.36a.50005.50005 0 100 1l2.7422 0a.50005.50005 0 100-1zM14.7578 1031.36a.50005.50005 0 100 1l1.2344 0a.50005.50005 0 100-1zM17.707 1045.36a.50064983.50064983 0 00.051 1l3.9922 0a.50005006.50005006 0 100-1l-3.9922 0a.50005006.50005006 0 00-.051 0zM10.25 1045.36a.50005.50005 0 100 1l2.7422 0a.50005.50005 0 100-1zM14.707 1045.36a.50064983.50064983 0 00.051 1l1.2344 0a.50005.50005 0 100-1l-1.2344 0a.50005.50005 0 00-.051 0z" color="#000" enable-background="accumulate" font-family="sans-serif" font-weight="400" overflow="visible"/></g></svg>