<svg xmlns="http://www.w3.org/2000/svg" enable-background="new 0 0 48 48" viewBox="0 0 48 48"><path d="M45.01,18.54L42.72,13c-0.31-0.74-1.14-1.1-1.89-0.84l-5.03,1.8c-0.54-0.63-1.12-1.21-1.75-1.75l1.8-5.04
		c0.27-0.75-0.1-1.58-0.84-1.89l-5.54-2.3c-0.74-0.31-1.59,0.02-1.93,0.74l-2.29,4.83c-0.82-0.07-1.65-0.07-2.47,0l-2.29-4.83
		c-0.34-0.72-1.19-1.05-1.93-0.74L13,5.29c-0.74,0.31-1.11,1.14-0.84,1.89l1.8,5.03c-0.63,0.54-1.21,1.12-1.75,1.75l-5.04-1.8
		C6.42,11.9,5.59,12.26,5.28,13l-2.3,5.54c-0.31,0.74,0.02,1.59,0.74,1.93l4.83,2.29c-0.07,0.82-0.07,1.65,0,2.47l-4.83,2.29
		c-0.72,0.34-1.05,1.19-0.74,1.93L5.28,35c0.31,0.74,1.14,1.1,1.89,0.84l5.03-1.8c0.53,0.63,1.12,1.21,1.75,1.75l-1.8,5.04
		c-0.27,0.75,0.1,1.58,0.84,1.89l5.54,2.3c0.19,0.08,0.38,0.11,0.57,0.11c0.56,0,1.1-0.32,1.36-0.86l2.29-4.83
		c0.82,0.07,1.65,0.07,2.47,0l2.29,4.83c0.34,0.72,1.19,1.05,1.93,0.74l5.54-2.3c0.74-0.31,1.11-1.14,0.84-1.89l-1.8-5.03
		c0.63-0.54,1.21-1.12,1.75-1.75l5.03,1.8c0.75,0.26,1.58-0.1,1.89-0.84l2.3-5.54c0.31-0.74-0.02-1.59-0.74-1.93l-4.83-2.29
		c0.07-0.82,0.07-1.65,0-2.47l4.83-2.29C44.99,20.13,45.32,19.28,45.01,18.54z M37.18,20.51c-0.6,0.28-0.94,0.93-0.84,1.58
		c0.2,1.26,0.19,2.54,0,3.8c-0.1,0.66,0.24,1.3,0.84,1.59l4.51,2.14l-1.2,2.91l-4.7-1.68c-0.63-0.22-1.32-0.01-1.72,0.53
		c-0.75,1.03-1.66,1.94-2.69,2.69c-0.54,0.39-0.75,1.09-0.53,1.71l1.68,4.7l-2.91,1.21l-2.14-4.51c-0.28-0.6-0.93-0.94-1.59-0.84
		c-1.26,0.2-2.54,0.2-3.8,0c-0.66-0.1-1.3,0.24-1.59,0.84l-2.14,4.51l-2.91-1.21l1.68-4.7c0.22-0.63,0.01-1.32-0.53-1.71
		c-1.03-0.76-1.94-1.66-2.69-2.69c-0.39-0.54-1.09-0.75-1.72-0.53l-4.7,1.68l-1.2-2.91l4.51-2.14c0.6-0.28,0.94-0.93,0.84-1.58
		c-0.2-1.26-0.19-2.54,0-3.8c0.1-0.66-0.24-1.3-0.84-1.59l-4.51-2.14l1.2-2.91l4.7,1.68c0.63,0.22,1.32,0.01,1.72-0.53
		c0.76-1.03,1.66-1.94,2.69-2.69c0.54-0.39,0.75-1.09,0.53-1.71l-1.68-4.7l2.91-1.21l2.14,4.51c0.28,0.6,0.93,0.94,1.59,0.84
		c1.26-0.2,2.54-0.2,3.8,0c0.66,0.1,1.3-0.24,1.59-0.84l2.14-4.51l2.91,1.21l-1.68,4.7c-0.22,0.63-0.01,1.32,0.53,1.71
		c1.03,0.75,1.94,1.66,2.69,2.69c0.39,0.54,1.09,0.75,1.71,0.53l4.7-1.68l1.2,2.91L37.18,20.51z"/><path d="M24,18.5c-3.03,0-5.5,2.47-5.5,5.5s2.47,5.5,5.5,5.5s5.5-2.47,5.5-5.5S27.03,18.5,24,18.5z M24,26.5
		c-1.38,0-2.5-1.12-2.5-2.5s1.12-2.5,2.5-2.5s2.5,1.12,2.5,2.5S25.38,26.5,24,26.5z"/></svg>