<svg xmlns="http://www.w3.org/2000/svg" enable-background="new 0 0 24 24" viewBox="0 0 24 24"><path fill="#303c42" d="M19,2h-2.092c-0.207-0.581-0.757-1-1.408-1h-1.511C13.52,0.377,12.781,0,12,0s-1.52,0.377-1.989,1   H8.5C7.849,1,7.299,1.419,7.092,2H5C3.897,2,3,2.897,3,4v18c0,1.103,0.897,2,2,2h14c1.103,0,2-0.897,2-2V4C21,2.897,20.103,2,19,2z   "/><path fill="#ccc" d="M8,2.5C8,2.224,8.225,2,8.5,2h1.777c0.178,0,0.343-0.095,0.432-0.249C10.983,1.281,11.466,1,12,1   s1.017,0.281,1.291,0.751C13.38,1.905,13.545,2,13.723,2H15.5C15.775,2,16,2.224,16,2.5V3c0,0.551-0.448,1-1,1H9   C8.448,4,8,3.551,8,3V2.5z"/><path fill="#fff" d="M20,22c0,0.551-0.448,1-1,1H5c-0.552,0-1-0.449-1-1V4c0-0.551,0.448-1,1-1h2c0,1.103,0.897,2,2,2h6   c1.103,0,2-0.897,2-2h2c0.552,0,1,0.449,1,1V22z"/><circle cx="7.5" cy="9.5" r="1.5" fill="#303c42"/><circle cx="7.5" cy="9.5" r=".5" fill="#303c42"/><circle cx="7.5" cy="14.5" r="1.5" fill="#303c42"/><circle cx="7.5" cy="14.5" r=".5" fill="#303c42"/><circle cx="7.5" cy="19.5" r="1.5" fill="#303c42"/><circle cx="7.5" cy="19.5" r=".5" fill="#303c42"/><linearGradient id="a" x1="10.942" x2="23.308" y1="1.145" y2="13.511" gradientUnits="userSpaceOnUse"><stop offset="0" stop-opacity=".1"/><stop offset="1" stop-opacity="0"/></linearGradient><path fill="url(#a)" d="M19,3h-2c0,1.103-0.897,2-2,2H9C8.471,5,7.992,4.79,7.634,4.453L20,16.819V4   C20,3.449,19.552,3,19,3z"/><path fill="#fff" d="M7.506,4.316L7.5,4.319l0.047,0.047C7.532,4.35,7.52,4.332,7.506,4.316z"/><path fill="#303c42" d="M17.5 9h-6C11.224 9 11 9.224 11 9.5s.224.5.5.5h6c.276 0 .5-.224.5-.5S17.776 9 17.5 9zM17.5 14h-6c-.276 0-.5.224-.5.5s.224.5.5.5h6c.276 0 .5-.224.5-.5S17.776 14 17.5 14zM17.5 19h-6c-.276 0-.5.224-.5.5s.224.5.5.5h6c.276 0 .5-.224.5-.5S17.776 19 17.5 19z"/><linearGradient id="b" x1=".991" x2="23.009" y1="7.866" y2="18.134" gradientUnits="userSpaceOnUse"><stop offset="0" stop-color="#fff" stop-opacity=".2"/><stop offset="1" stop-color="#fff" stop-opacity="0"/></linearGradient><path fill="url(#b)" d="M19,2h-2.092c-0.207-0.581-0.757-1-1.408-1h-1.511C13.52,0.377,12.781,0,12,0   s-1.52,0.377-1.989,1H8.5C7.849,1,7.299,1.419,7.092,2H5C3.897,2,3,2.897,3,4v18c0,1.103,0.897,2,2,2h14c1.103,0,2-0.897,2-2V4   C21,2.897,20.103,2,19,2z"/></svg>